<svg xmlns="http://www.w3.org/2000/svg" viewBox="0 0 206.57 35.37"><defs><style>.cls-1{fill:#f9ca06;}.cls-2{fill:#fba100;}.cls-3{font-size:12px;font-family:IBMPlexMono-Medium, IBM Plex Mono;font-weight:500;}</style></defs><title>em-black</title><g id="Layer_2" data-name="Layer 2"><g id="Layer_10" data-name="Layer 10"><rect class="cls-1" width="52.69" height="35.28" rx="0.89"/><path class="cls-2" d="M51.81,35.37H.89A.89.89,0,0,1,0,34.48V1A.88.88,0,0,1,.89.09H51.81a.87.87,0,0,1,.88.88V34.48A.88.88,0,0,1,51.81,35.37Zm-50-1.77H50.92V1.86H1.77Z"/><path class="cls-2" d="M26.35,25.06a.9.9,0,0,1-.6-.23L.29,1.63a.9.9,0,0,1-.23-1A.88.88,0,0,1,.89.09H51.81a.88.88,0,0,1,.59,1.54L26.94,24.83A.89.89,0,0,1,26.35,25.06ZM3.17,1.86,26.35,23,49.52,1.86Z"/><path class="cls-2" d="M51.81,35.37H.89a.87.87,0,0,1-.84-.61.86.86,0,0,1,.3-1L20.53,18.65a.88.88,0,0,1,1.24.17.89.89,0,0,1-.18,1.24L3.54,33.6H49.15L31.33,20.23a.88.88,0,1,1,1.06-1.41l20,15a.88.88,0,0,1-.53,1.59Z"/><text class="cls-3" transform="translate(55.37 22.4)">taylor@htmlartist.net</text></g></g></svg>