<svg xmlns="http://www.w3.org/2000/svg" viewBox="0 0 200.92 27.78"><defs><style>.cls-1{fill:#f9ca06;}.cls-2{fill:#fba100;}.cls-3{font-size:12px;fill:#666;font-family:IBMPlexMono-Medium, IBM Plex Mono;font-weight:500;}</style></defs><title>env</title><g id="Layer_2" data-name="Layer 2"><g id="env"><rect class="cls-1" width="41.38" height="27.71" rx="0.7"/><path class="cls-2" d="M40.69,27.78H.7a.7.7,0,0,1-.7-.7V.76A.69.69,0,0,1,.7.07h40a.69.69,0,0,1,.69.69V27.08A.69.69,0,0,1,40.69,27.78ZM1.39,26.39H40V1.46H1.39Z"/><path class="cls-2" d="M20.69,19.68a.71.71,0,0,1-.47-.18L.23,1.28A.68.68,0,0,1,.05.51.68.68,0,0,1,.7.07h40a.69.69,0,0,1,.65.44.72.72,0,0,1-.18.77l-20,18.22A.69.69,0,0,1,20.69,19.68ZM2.49,1.46,20.69,18,38.89,1.46Z"/><path class="cls-2" d="M40.69,27.78H.7A.69.69,0,0,1,0,27.3a.68.68,0,0,1,.24-.77L16.12,14.64a.71.71,0,0,1,1,.14.7.7,0,0,1-.14,1L2.78,26.39H38.6l-14-10.5a.7.7,0,0,1,.84-1.11L41.11,26.53a.7.7,0,0,1-.42,1.25Z"/><text class="cls-3" transform="translate(49.72 18.86)">taylor@htmlartist.net</text></g></g></svg>