<svg xmlns="http://www.w3.org/2000/svg" viewBox="0 0 105.49 35.28"><defs><style>.cls-1{fill:#f9ca06;}.cls-1,.cls-2{fill-rule:evenodd;}.cls-2{fill:#fba100;}.cls-3{font-size:12px;fill:#666;font-family:IBMPlexMono-Medium, IBM Plex Mono;font-weight:500;}</style></defs><title>linkedin-grey</title><g id="Layer_2" data-name="Layer 2"><g id="linkedin-grey"><path class="cls-1" d="M32.46,0H3A2.88,2.88,0,0,0,0,2.75V32.26a3.1,3.1,0,0,0,3,3H32.45a2.94,2.94,0,0,0,2.83-3V2.75A2.7,2.7,0,0,0,32.46,0Z"/><path class="cls-2" d="M10.92,29.41V13.68h-5V29.41ZM8.58,11.3a2.6,2.6,0,0,0,2.73-2.71,2.6,2.6,0,0,0-2.7-2.71A2.61,2.61,0,0,0,5.88,8.59,2.59,2.59,0,0,0,8.55,11.3Z"/><path class="cls-2" d="M23.58,13.33A5.12,5.12,0,0,0,19,15.88V13.69H14V29.41h5V20.46a3.31,3.31,0,0,1,.18-1.24,2.76,2.76,0,0,1,2.59-1.87c1.83,0,2.57,1.41,2.57,3.47v8.59h5.05V20.23C29.41,15.51,26.91,13.33,23.58,13.33Z"/><path class="cls-2" d="M32.46,0H3A2.88,2.88,0,0,0,0,2.75V32.26a3.1,3.1,0,0,0,3,3H32.45a2.94,2.94,0,0,0,2.83-3V2.75A2.7,2.7,0,0,0,32.46,0Zm-.29,32.35H3.23s-.29-.13-.29-.28V3.12a.19.19,0,0,1,.18-.18H32.17a.19.19,0,0,1,.18.18V32.17A.19.19,0,0,1,32.17,32.35Z"/><text class="cls-3" transform="translate(47.89 22.68)">LinkedIn</text></g></g></svg>