<?xml version="1.0" encoding="utf-8"?>
<!-- Generator: Adobe Illustrator 23.1.1, SVG Export Plug-In . SVG Version: 6.00 Build 0)  -->
<svg version="1.1" id="Layer_1" xmlns="http://www.w3.org/2000/svg" xmlns:xlink="http://www.w3.org/1999/xlink" x="0px" y="0px"
	 viewBox="0 0 512 512" style="enable-background:new 0 0 512 512;" xml:space="preserve">
<style type="text/css">
	.st0{fill-rule:evenodd;clip-rule:evenodd;fill:#FBA100;}
</style>
<path class="st0" d="M182.8,384V212.9h-54.9V384H182.8z M157.4,187c18.3,0,29.7-13.1,29.7-29.5c-0.3-16.7-11.4-29.5-29.4-29.5
	S128,140.8,128,157.5c0,16.4,11.4,29.5,29,29.5H157.4z"/>
<path class="st0" d="M320.6,209c-29.1,0-41.6,16.4-49.6,27.8V213h-55v171h55v-97.4c0-5,0.4-10,1.9-13.5c4-10,13-20.3,28.2-20.3
	c19.9,0,27.9,15.3,27.9,37.7V384h55v-99.9C384,232.8,356.8,209,320.6,209z"/>
<path class="st0" d="M417.2,64H96.8C79.3,64,64,76.6,64,93.9V415c0,17.4,15.3,32.9,32.8,32.9h320.3c17.6,0,30.8-15.6,30.8-32.9V93.9
	C448,76.6,434.7,64,417.2,64L417.2,64z M414,416H99.1c0,0-3.1-1.4-3.1-3.1S96,99.1,96,98s1-2,2-2s315,0,316,0s2,1,2,2v316
	C416,414.9,415.1,416,414,416z"/>
</svg>
