<svg xmlns="http://www.w3.org/2000/svg" viewBox="0 0 146.62 146.54"><defs><style>.cls-1{fill:none;stroke:#565656;stroke-miterlimit:10;stroke-width:4px;}.cls-2{font-size:7px;}.cls-2,.cls-3,.cls-4{fill:#565656;font-family:IBMPlexMono-MediumItalic, IBM Plex Mono;font-weight:500;font-style:italic;}.cls-3{font-size:6px;}.cls-4{font-size:10px;}</style></defs><title>graph2</title><g id="Layer_2" data-name="Layer 2"><g id="graph2"><path class="cls-1" d="M82.4,85.65l32.9,45.28a70.52,70.52,0,0,0,22.81-27.18Z"/><path class="cls-1" d="M117.34,16.9a70,70,0,0,0-13.68-8.25"/><line class="cls-1" x1="74.37" y1="37.93" x2="74.37" y2="59.86"/><path class="cls-1" d="M128.47,27.7a70.26,70.26,0,0,0-11.13-10.8"/><polyline class="cls-1" points="74.37 59.86 74.37 72.47 81.41 74.76"/><line class="cls-1" x1="74.37" y1="16" x2="74.37" y2="37.93"/><path class="cls-1" d="M103.66,8.65A71.19,71.19,0,0,0,87,3.36"/><path class="cls-1" d="M87,3.36A68.66,68.66,0,0,0,74.37,2.25V16"/><path class="cls-1" d="M137.14,41a70.77,70.77,0,0,0-8.67-13.27"/><line class="cls-1" x1="81.41" y1="74.76" x2="97.96" y2="80.14"/><path class="cls-1" d="M128.3,90l12.87,4.18a70.19,70.19,0,0,0,3.44-20.49"/><path class="cls-1" d="M142.91,57.13A71.05,71.05,0,0,0,137.14,41"/><line class="cls-1" x1="97.96" y1="80.14" x2="114.52" y2="85.52"/><path class="cls-1" d="M144.61,73.69a69.82,69.82,0,0,0-1.7-16.56"/><line class="cls-1" x1="114.52" y1="85.52" x2="128.3" y2="90"/><line class="cls-1" x1="84.01" y1="103.28" x2="68.22" y2="81.54"/><path class="cls-1" d="M5.75,96a71.35,71.35,0,0,0,101.88,39.75L84,103.28"/><path class="cls-1" d="M5,52.56A71.69,71.69,0,0,0,5.75,96"/><path class="cls-1" d="M64.29,9.7V2.25C48.8,4,34.65,11,22.89,22.71A71.13,71.13,0,0,0,5,52.56"/><line class="cls-1" x1="64.29" y1="24.19" x2="64.29" y2="9.7"/><line class="cls-1" x1="64.29" y1="38.07" x2="64.29" y2="24.19"/><line class="cls-1" x1="64.29" y1="52.56" x2="64.29" y2="38.07"/><line class="cls-1" x1="64.29" y1="67.05" x2="64.29" y2="52.56"/><polyline class="cls-1" points="68.22 81.54 67.86 81.04 64.29 76.21 64.29 67.05"/><text class="cls-2" transform="translate(81.62 54.48)">JS and jQuary</text><text class="cls-3" transform="translate(103.66 105.12)">UI/UE<tspan x="0" y="7.2">Creative</tspan></text><text class="cls-4" transform="translate(26.01 77.68)">HTML<tspan x="0" y="12">CSS</tspan></text></g></g></svg>