<svg xmlns="http://www.w3.org/2000/svg" viewBox="0 0 168.09 92.19"><defs><style>.cls-1,.cls-2,.cls-3{fill:none;stroke:#565656;}.cls-1{stroke-miterlimit:10;}.cls-1,.cls-3{stroke-width:3px;}.cls-4{font-size:6px;fill:#565656;font-family:IBMPlexMono-Italic, IBM Plex Mono;font-style:italic;}.cls-5{font-size:4px;font-family:IBMPlexMono, IBM Plex Mono;}</style></defs><title>graph</title><g id="Layer_2" data-name="Layer 2"><g id="Layer_18" data-name="Layer 18"><rect class="cls-1" x="51.91" y="53.07" width="15.48" height="17.98"/><rect class="cls-1" x="76.34" y="52.97" width="15.47" height="18.08"/><rect class="cls-1" x="100.77" y="42.31" width="15.48" height="28.74"/><rect class="cls-1" x="125.2" y="32.99" width="15.48" height="38.06"/><rect class="cls-1" x="149.63" y="20.98" width="15.47" height="50.07"/><line class="cls-2" x1="31.2" y1="71.42" x2="42.55" y2="71.42"/><line class="cls-2" x1="31.2" y1="49.98" x2="42.55" y2="49.98"/><line class="cls-2" x1="31.2" y1="28.54" x2="42.55" y2="28.54"/><line class="cls-2" x1="31.2" y1="7.09" x2="42.55" y2="7.09"/><line class="cls-3" x1="21.15" y1="75.49" x2="168.09" y2="75.49"/><text class="cls-4" transform="translate(14.4 69.42)">beginner</text><text class="cls-4" transform="translate(0 47.98)">transitional</text><text class="cls-4" transform="translate(21.6 5.09)">expert</text><text class="cls-4" transform="translate(14.4 26.54)">advanced</text><text class="cls-5" transform="translate(150.72 81.59)">HTML5/<tspan x="0" y="4.8">CSS3</tspan></text><text class="cls-5" transform="translate(53.05 81.59)">JS/<tspan x="0" y="4.8">jQuary</tspan></text><text class="cls-5" transform="translate(101.4 81.59)">UI/<tspan x="0" y="4.8">Design</tspan></text><text class="cls-5" transform="translate(121.3 81.59)">Responsive<tspan x="0" y="4.8">Layout</tspan><tspan x="0" y="9.6">Techniques</tspan></text><text class="cls-5" transform="translate(73.43 81.59)">CSS &amp; JS<tspan x="0" y="4.8">Libraries</tspan></text></g></g></svg>