<svg xmlns="http://www.w3.org/2000/svg" viewBox="0 0 201.29 119.19"><defs><style>.cls-1,.cls-2{fill:none;stroke:#565656;stroke-width:3px;}.cls-1{stroke-miterlimit:10;}.cls-3{font-size:6px;fill:#565656;font-family:IBMPlexMono-Italic, IBM Plex Mono;font-style:italic;}.cls-4{font-size:4px;font-family:IBMPlexMono, IBM Plex Mono;}</style></defs><title>graph</title><g id="Layer_2" data-name="Layer 2"><g id="Layer_18" data-name="Layer 18"><rect class="cls-1" x="85.11" y="67.07" width="15.48" height="30.98"/><rect class="cls-1" x="109.54" y="66.97" width="15.47" height="31.08"/><rect class="cls-1" x="133.97" y="54.31" width="15.48" height="43.74"/><rect class="cls-1" x="158.4" y="34.99" width="15.48" height="63.06"/><rect class="cls-1" x="182.83" y="16.98" width="15.47" height="81.07"/><line class="cls-2" x1="51.4" y1="98.42" x2="70.75" y2="98.42"/><line class="cls-2" x1="51.4" y1="66.98" x2="70.75" y2="66.98"/><line class="cls-2" x1="51.4" y1="35.54" x2="70.75" y2="35.54"/><line class="cls-2" x1="51.4" y1="4.09" x2="70.75" y2="4.09"/><line class="cls-2" x1="49.35" y1="102.49" x2="201.29" y2="102.49"/><text class="cls-3" transform="translate(14.4 99.42)">beginner</text><text class="cls-3" transform="translate(0 67.98)">transitional</text><text class="cls-3" transform="translate(28.8 5.09)">guru</text><text class="cls-3" transform="translate(14.4 36.54)">advanced</text><text class="cls-4" transform="translate(183.92 108.59)">HTML5/<tspan x="0" y="4.8">CSS3</tspan></text><text class="cls-4" transform="translate(86.25 108.59)">JS/<tspan x="0" y="4.8">jQuary</tspan></text><text class="cls-4" transform="translate(134.6 108.59)">UI/<tspan x="0" y="4.8">Design</tspan></text><text class="cls-4" transform="translate(154.5 108.59)">Responsive<tspan x="0" y="4.8">Layout</tspan><tspan x="0" y="9.6">Techniques</tspan></text><text class="cls-4" transform="translate(106.63 108.59)">CSS &amp; JS<tspan x="0" y="4.8">Libraries</tspan></text></g></g></svg>