<svg xmlns="http://www.w3.org/2000/svg" viewBox="0 0 146.62 146.54"><defs><style>.cls-1{fill:none;stroke:#565656;stroke-miterlimit:10;stroke-width:4px;}.cls-2{font-size:7px;}.cls-2,.cls-3,.cls-4{fill:#565656;font-family:IBMPlexMono-MediumItalic, IBM Plex Mono;font-weight:500;font-style:italic;}.cls-3{font-size:6px;}.cls-4{font-size:10px;}</style></defs><title>graph2</title><g id="Layer_2" data-name="Layer 2"><g id="graph2"><path class="cls-1" d="M82.4,85.65l32.9,45.28a70.52,70.52,0,0,0,22.81-27.18Z"/><path class="cls-1" d="M74.37,72.47V2.25A68.66,68.66,0,0,1,87,3.36a71.19,71.19,0,0,1,16.65,5.29,69.29,69.29,0,0,1,24.81,19,70.16,70.16,0,0,1,14.44,29.43,69.87,69.87,0,0,1-1.74,37.05Z"/><path class="cls-1" d="M64.29,2.25C48.8,4,34.65,11,22.89,22.71a71.37,71.37,0,0,0,84.74,113.07L64.29,76.21Z"/><text class="cls-2" transform="translate(81.62 54.48)">JS and jQuary</text><text class="cls-3" transform="translate(103.66 105.12)">UI/UX<tspan x="0" y="7.2">Creative</tspan></text><text class="cls-4" transform="translate(26.01 77.68)">HTML<tspan x="0" y="12">CSS</tspan></text></g></g></svg>