<svg xmlns="http://www.w3.org/2000/svg" viewBox="0 0 241.27 146.54"><defs><style>.cls-1{fill:none;stroke:#565656;stroke-miterlimit:10;stroke-width:4px;}.cls-2{font-size:6px;fill:#565656;font-family:IBMPlexMono-Italic, IBM Plex Mono;font-style:italic;}</style></defs><title>graph2</title><g id="Layer_2" data-name="Layer 2"><g id="Layer_19" data-name="Layer 19"><path class="cls-1" d="M98.08,72.47l66.8,21.71a70.23,70.23,0,0,0-45.09-88.5A66.73,66.73,0,0,0,98.08,2.25Z"/><path class="cls-1" d="M106.11,85.65,139,130.93a70.52,70.52,0,0,0,22.81-27.18Z"/><path class="cls-1" d="M98.08,72.47l66.8,21.71a70.23,70.23,0,0,0-45.09-88.5A66.73,66.73,0,0,0,98.08,2.25Z"/><path class="cls-1" d="M91.57,81,88,76.21v-74C72.51,4,58.36,11,46.6,22.71a71.37,71.37,0,0,0,84.74,113.07Z"/><path class="cls-1" d="M127.37,8.65,98.08,37.93V59.86l43-43A70,70,0,0,0,127.37,8.65Z"/><path class="cls-1" d="M141.05,16.9l-43,43V72.47l7,2.29L152.18,27.7A70.26,70.26,0,0,0,141.05,16.9Z"/><path class="cls-1" d="M119.79,5.68a71.14,71.14,0,0,0-9.07-2.32L98.08,16V37.93L127.37,8.65A71.38,71.38,0,0,0,119.79,5.68Z"/><path class="cls-1" d="M98.08,2.25V16L110.72,3.36A68.66,68.66,0,0,0,98.08,2.25Z"/><path class="cls-1" d="M152.18,27.7,105.12,74.76l16.55,5.38L160.85,41A70.77,70.77,0,0,0,152.18,27.7Z"/><path class="cls-1" d="M152,90l12.87,4.18a70.19,70.19,0,0,0,3.44-20.49Z"/><path class="cls-1" d="M160.85,41,121.67,80.14l16.56,5.38,28.39-28.39A71.05,71.05,0,0,0,160.85,41Z"/><path class="cls-1" d="M166.62,57.13,138.23,85.52,152,90l16.31-16.31A69.82,69.82,0,0,0,166.62,57.13Z"/><path class="cls-1" d="M107.72,103.28h0L91.93,81.54h0l-.36-.5L88,76.21V67.05h0V52.56h0V38.07h0V24.19h0V9.7h0V2.25C72.51,4,58.36,11,46.6,22.71A71.13,71.13,0,0,0,28.73,52.56h0A71.69,71.69,0,0,0,29.46,96h0a71.35,71.35,0,0,0,101.88,39.75Z"/><path class="cls-1" d="M26.57,81.54h0Z"/><path class="cls-1" d="M26.57,67.05h0Z"/><path class="cls-1" d="M41.65,117.77h0Z"/><path class="cls-1" d="M41.65,103.28h0Z"/><path class="cls-1" d="M41.65,88.79h0Z"/><path class="cls-1" d="M41.65,74.3h0Z"/><path class="cls-1" d="M41.65,59.81h0Z"/><path class="cls-1" d="M41.65,45.32h0Z"/><path class="cls-1" d="M41.65,31.43h0Z"/><path class="cls-1" d="M56.72,125h0Z"/><path class="cls-1" d="M56.72,110.52h0Z"/><path class="cls-1" d="M56.72,96h0Z"/><path class="cls-1" d="M56.72,81.54h0Z"/><path class="cls-1" d="M56.72,67.05h0Z"/><path class="cls-1" d="M56.72,52.56h0Z"/><path class="cls-1" d="M56.72,38.07h0Z"/><path class="cls-1" d="M56.72,24.19h0Z"/><path class="cls-1" d="M71.79,132.26h0Z"/><path class="cls-1" d="M71.79,117.77h0Z"/><path class="cls-1" d="M71.79,103.28h0Z"/><path class="cls-1" d="M71.79,88.79h0Z"/><path class="cls-1" d="M71.79,74.3h0Z"/><path class="cls-1" d="M71.79,59.81h0Z"/><path class="cls-1" d="M71.79,45.32h0Z"/><path class="cls-1" d="M71.79,31.43h0Z"/><path class="cls-1" d="M71.79,16.94h0Z"/><path class="cls-1" d="M86.86,139.5h0Z"/><path class="cls-1" d="M86.86,125h0Z"/><path class="cls-1" d="M86.86,110.52h0Z"/><path class="cls-1" d="M86.86,96h0Z"/><path class="cls-1" d="M123,125h0Z"/><path class="cls-1" d="M101.93,132.26h0Z"/><path class="cls-1" d="M101.93,117.77h0Z"/><path class="cls-1" d="M117,139.5h0Z"/><text class="cls-2" transform="translate(158.48 17.86)">JS and jQuary<tspan x="0" y="7.2">Responsive Layout</tspan><tspan x="0" y="14.4">templates and libraries</tspan></text><text class="cls-2" transform="translate(159.15 123.83)">UI/UE<tspan x="0" y="7.2">Creative Development</tspan></text><text class="cls-2" transform="translate(0 86.27)">HTML<tspan x="0" y="7.2">CSS</tspan></text></g></g></svg>