<svg xmlns="http://www.w3.org/2000/svg" viewBox="0 0 115.42 37.51"><defs><style>.cls-1{fill:#f9ca06;}.cls-2,.cls-3{fill:#fba100;}.cls-3{stroke:#fba100;stroke-linecap:round;stroke-linejoin:round;stroke-width:1.2px;}.cls-4{font-size:12px;fill:#666;font-family:IBMPlexMono-Medium, IBM Plex Mono;font-weight:500;}</style></defs><title>pdf-grey</title><g id="Layer_2" data-name="Layer 2"><g id="pdf-grey"><path class="cls-1" d="M25.66,37.51H.69A.69.69,0,0,1,0,36.82V.69A.69.69,0,0,1,.69,0H17.83l8.52,8.33V36.82A.69.69,0,0,1,25.66,37.51Z"/><path class="cls-2" d="M25.66,37.51H.69A.69.69,0,0,1,0,36.82V.69A.69.69,0,0,1,.69,0H17.83l8.52,8.33V36.82A.69.69,0,0,1,25.66,37.51ZM1.37,36.14H25V9L21,5,17.28,1.37H1.37Z"/><path class="cls-2" d="M12,14.2H6.25a.69.69,0,0,1,0-1.38H12a.69.69,0,0,1,0,1.38Z"/><path class="cls-2" d="M20.63,19.75H6.25a.69.69,0,0,1,0-1.38H20.63a.69.69,0,0,1,0,1.38Z"/><path class="cls-2" d="M20.63,25.3H6.25a.69.69,0,0,1,0-1.38H20.63a.69.69,0,0,1,0,1.38Z"/><path class="cls-2" d="M20.63,30.85H17.36a.69.69,0,0,1,0-1.38h3.27a.69.69,0,0,1,0,1.38Z"/><polygon class="cls-3" points="22.58 8.96 17.34 8.96 17.34 3.83 22.58 8.96"/><text class="cls-4" transform="translate(43.42 22.68)">pdf resume</text></g></g></svg>